<svg width="640" height="590" viewBox="0 0 640 590" fill="none" xmlns="http://www.w3.org/2000/svg">
  <defs><linearGradient id="mc-bg" x1="0" y1="0" x2="640" y2="590" gradientUnits="userSpaceOnUse"><stop stop-color="#050816"/><stop offset="1" stop-color="#081225"/></linearGradient></defs>
  <rect width="640" height="590" rx="22" fill="url(#mc-bg)"/><rect x="0.5" y="0.5" width="639" height="589" rx="21.5" stroke="#1E293B"/><rect x="1" y="1" width="638" height="62" rx="21" fill="#0B1220"/><path d="M1 63H639" stroke="#1E293B"/>
  <circle cx="28" cy="32" r="6" fill="#F87171"/><circle cx="51" cy="32" r="6" fill="#FBBF24"/><circle cx="74" cy="32" r="6" fill="#34D399"/>
  <g font-family="Inter, Segoe UI, Arial, sans-serif"><text x="98" y="37" fill="#94A3B8" font-size="13" font-weight="600">Nguyen.cs</text><text x="586" y="37" fill="#475569" font-size="11" font-weight="600">C#</text></g>
  <g font-family="Cascadia Code, Consolas, monospace" font-size="15">
    <g fill="#475569" text-anchor="end"><text x="45" y="105">01</text><text x="45" y="139">02</text><text x="45" y="173">03</text><text x="45" y="207">04</text><text x="45" y="241">05</text><text x="45" y="275">06</text><text x="45" y="309">07</text><text x="45" y="343">08</text><text x="45" y="377">09</text><text x="45" y="411">10</text><text x="45" y="445">11</text><text x="45" y="479">12</text></g>
    <path d="M62 78V510" stroke="#172033"/>
    <text x="80" y="105"><tspan fill="#C084FC">public class</tspan><tspan fill="#E2E8F0"> Nguyen</tspan></text><text x="80" y="139" fill="#E2E8F0">{</text>
    <text x="102" y="173"><tspan fill="#C084FC">public string</tspan><tspan fill="#7DD3FC"> Role</tspan><tspan fill="#E2E8F0"> =&gt; </tspan><tspan fill="#86EFAC">"Junior .NET Developer"</tspan><tspan fill="#E2E8F0">;</tspan></text>
    <text x="102" y="207"><tspan fill="#C084FC">public string</tspan><tspan fill="#7DD3FC"> Focus</tspan><tspan fill="#E2E8F0"> =&gt;</tspan></text><text x="124" y="241" fill="#86EFAC">"Desktop Application";</text>
    <text x="102" y="275"><tspan fill="#C084FC">public string[]</tspan><tspan fill="#7DD3FC"> Skills</tspan><tspan fill="#E2E8F0"> =&gt;</tspan></text><text x="102" y="309" fill="#E2E8F0">[</text>
    <text x="124" y="343" fill="#86EFAC">"Code", "Design", "Edit"</text><text x="102" y="377" fill="#E2E8F0">];</text>
    <text x="102" y="411"><tspan fill="#C084FC">public string</tspan><tspan fill="#7DD3FC"> Mindset</tspan><tspan fill="#E2E8F0"> =&gt;</tspan></text><text x="124" y="445" fill="#86EFAC">"Build. Design. Improve.";</text><text x="80" y="479" fill="#E2E8F0">}</text>
  </g>
  <rect x="80" y="535" width="132" height="3" rx="1.5" fill="#2563EB"/><rect x="220" y="535" width="48" height="3" rx="1.5" fill="#1E293B"/>
</svg>
