<svg width="640" height="780" viewBox="0 0 640 780" fill="none" xmlns="http://www.w3.org/2000/svg">
  <defs>
    <linearGradient id="m-bg" x1="0" y1="0" x2="640" y2="780" gradientUnits="userSpaceOnUse"><stop stop-color="#050816"/><stop offset="0.55" stop-color="#07152F"/><stop offset="1" stop-color="#050816"/></linearGradient>
    <radialGradient id="m-glow" cx="0" cy="0" r="1" gradientTransform="translate(320 340) rotate(90) scale(390 390)" gradientUnits="userSpaceOnUse"><stop stop-color="#2563EB" stop-opacity="0.3"/><stop offset="1" stop-color="#2563EB" stop-opacity="0"/></radialGradient>
    <pattern id="m-grid" width="32" height="32" patternUnits="userSpaceOnUse"><path d="M32 0H0V32" stroke="#3B82F6" stroke-opacity="0.07"/></pattern>
  </defs>
  <rect width="640" height="780" rx="24" fill="url(#m-bg)"/><rect width="640" height="780" rx="24" fill="url(#m-glow)"/><rect width="640" height="780" rx="24" fill="url(#m-grid)"/><rect x="0.5" y="0.5" width="639" height="779" rx="23.5" stroke="#1E293B"/>
  <g font-family="Inter, Segoe UI, Arial, sans-serif" text-anchor="middle">
    <text x="320" y="70" fill="#94A3B8" font-size="13" font-weight="650" letter-spacing="2.5">DEVELOPER / DESIGN-AWARE</text>
    <path d="M120 105H520" stroke="#1E3A63"/><circle cx="320" cy="105" r="4" fill="#3B82F6"/>
    <text x="320" y="230" fill="#FFFFFF" font-size="72" font-weight="750" letter-spacing="-3">NGUYÊN</text>
    <text x="320" y="278" fill="#3B82F6" font-size="20" font-weight="700" letter-spacing="1.5">JUNIOR .NET DEVELOPER</text>
    <text x="320" y="348" fill="#FFFFFF" font-size="24" font-weight="600">Crafting software with</text><text x="320" y="382" fill="#FFFFFF" font-size="24" font-weight="600">a designer's mindset.</text>
    <text x="320" y="430" fill="#94A3B8" font-size="15">Code clean. Design simple. Improve daily.</text>
  </g>
  <g font-family="Inter, Segoe UI, Arial, sans-serif" font-size="12" font-weight="650" text-anchor="middle">
    <g transform="translate(104 475)"><rect width="92" height="34" rx="17" fill="#0B1730" stroke="#1E3A63"/><text x="46" y="22" fill="#A8CFFF">C#</text></g>
    <g transform="translate(206 475)"><rect width="92" height="34" rx="17" fill="#0B1730" stroke="#1E3A63"/><text x="46" y="22" fill="#A8CFFF">.NET</text></g>
    <g transform="translate(308 475)"><rect width="100" height="34" rx="17" fill="#0B1730" stroke="#1E3A63"/><text x="50" y="22" fill="#A8CFFF">WinForms</text></g>
    <g transform="translate(418 475)"><rect width="118" height="34" rx="17" fill="#0B1730" stroke="#1E3A63"/><text x="59" y="22" fill="#A8CFFF">SQL Server</text></g>
    <g transform="translate(166 526)"><rect width="140" height="34" rx="17" fill="#0B1730" stroke="#1E3A63"/><text x="70" y="22" fill="#A8CFFF">UI Design</text></g>
    <g transform="translate(324 526)"><rect width="150" height="34" rx="17" fill="#0B1730" stroke="#1E3A63"/><text x="75" y="22" fill="#A8CFFF">Video Editing</text></g>
  </g>
  <g font-family="Inter, Segoe UI, Arial, sans-serif" font-size="13" font-weight="700" text-anchor="middle">
    <g transform="translate(120 620)"><rect width="400" height="52" rx="10" fill="#2563EB"/><text x="200" y="32" fill="#FFFFFF" letter-spacing="1">VIEW PROFILE</text></g>
    <g transform="translate(120 688)"><rect x="0.5" y="0.5" width="399" height="51" rx="9.5" fill="#081020" stroke="#334155"/><text x="200" y="32" fill="#CBD5E1" letter-spacing="1">EXPLORE WORK</text></g>
  </g>
</svg>
