<svg width="1200" height="500" viewBox="0 0 1200 500" fill="none" xmlns="http://www.w3.org/2000/svg">
  <defs>
    <linearGradient id="project-bg" x1="0" y1="0" x2="1200" y2="500" gradientUnits="userSpaceOnUse">
      <stop stop-color="#050816"/><stop offset="0.55" stop-color="#071126"/><stop offset="1" stop-color="#06182C"/>
    </linearGradient>
    <radialGradient id="project-glow" cx="0" cy="0" r="1" gradientTransform="translate(1020 80) rotate(130) scale(350 330)" gradientUnits="userSpaceOnUse">
      <stop stop-color="#2563EB" stop-opacity="0.24"/><stop offset="1" stop-color="#2563EB" stop-opacity="0"/>
    </radialGradient>
  </defs>
  <rect width="1200" height="500" rx="22" fill="url(#project-bg)"/>
  <rect width="1200" height="500" rx="22" fill="url(#project-glow)"/>
  <rect x="0.5" y="0.5" width="1199" height="499" rx="21.5" stroke="#1E293B"/>

  <g font-family="Inter, Segoe UI, Arial, sans-serif">
    <g transform="translate(58 58)">
      <rect width="132" height="28" rx="14" fill="#0B2745" stroke="#1D4E7A"/>
      <circle cx="17" cy="14" r="4" fill="#3B82F6"/>
      <text x="30" y="18" fill="#93C5FD" font-size="10" font-weight="700" letter-spacing="1.2">IN DEVELOPMENT</text>
      <text x="0" y="126" fill="#FFFFFF" font-size="38" font-weight="740">Milk Tea Shop</text>
      <text x="0" y="171" fill="#FFFFFF" font-size="38" font-weight="740">Management System</text>
      <text x="0" y="218" fill="#94A3B8" font-size="15">A desktop application for managing products,</text>
      <text x="0" y="243" fill="#94A3B8" font-size="15">invoices, employees, inventory, and reports.</text>

      <g transform="translate(0 278)" font-size="10" font-weight="700" text-anchor="middle">
        <g><rect width="54" height="28" rx="6" fill="#0F1D34"/><text x="27" y="18" fill="#93C5FD">C#</text></g>
        <g transform="translate(64)"><rect width="88" height="28" rx="6" fill="#0F1D34"/><text x="44" y="18" fill="#93C5FD">WINFORMS</text></g>
        <g transform="translate(162)"><rect width="102" height="28" rx="6" fill="#0F1D34"/><text x="51" y="18" fill="#93C5FD">SQL SERVER</text></g>
        <g transform="translate(274)"><rect width="78" height="28" rx="6" fill="#0F1D34"/><text x="39" y="18" fill="#93C5FD">RDLC</text></g>
      </g>
      <g transform="translate(0 338)">
        <rect width="148" height="42" rx="8" fill="#2563EB"/>
        <text x="74" y="26" fill="#FFFFFF" font-size="11" font-weight="700" text-anchor="middle" letter-spacing="1">PRIVATE BUILD</text>
      </g>
    </g>

    <g transform="translate(658 66)">
      <rect width="484" height="360" rx="16" fill="#0A111E" stroke="#294460"/>
      <rect width="484" height="42" rx="16" fill="#101B2A"/>
      <path d="M0 42H484" stroke="#24364C"/>
      <circle cx="22" cy="21" r="4" fill="#3B82F6"/>
      <text x="36" y="25" fill="#A8B7C9" font-size="10" font-weight="700" letter-spacing="1">STORE DASHBOARD</text>
      <circle cx="446" cy="21" r="4" fill="#34D399"/>

      <rect x="18" y="59" width="82" height="282" rx="9" fill="#070D16"/>
      <rect x="29" y="74" width="60" height="32" rx="6" fill="#102B4B"/>
      <rect x="40" y="87" width="30" height="5" rx="2.5" fill="#60A5FA"/>
      <rect x="29" y="125" width="42" height="5" rx="2.5" fill="#26384E"/>
      <rect x="29" y="153" width="50" height="5" rx="2.5" fill="#26384E"/>
      <rect x="29" y="181" width="37" height="5" rx="2.5" fill="#26384E"/>
      <rect x="29" y="209" width="46" height="5" rx="2.5" fill="#26384E"/>
      <rect x="29" y="237" width="40" height="5" rx="2.5" fill="#26384E"/>

      <text x="118" y="80" fill="#E2E8F0" font-size="14" font-weight="700">Today's overview</text>
      <text x="118" y="98" fill="#64748B" font-size="9">Store performance at a glance</text>
      <g transform="translate(118 116)">
        <rect width="105" height="66" rx="8" fill="#101B29"/>
        <text x="12" y="20" fill="#64748B" font-size="8">ORDERS</text>
        <text x="12" y="48" fill="#FFFFFF" font-size="21" font-weight="700">128</text>
        <path d="M73 48L80 40L87 44L96 31" stroke="#3B82F6" stroke-width="2" stroke-linecap="round"/>
      </g>
      <g transform="translate(234 116)">
        <rect width="105" height="66" rx="8" fill="#101B29"/>
        <text x="12" y="20" fill="#64748B" font-size="8">PRODUCTS</text>
        <text x="12" y="48" fill="#FFFFFF" font-size="21" font-weight="700">42</text>
        <circle cx="82" cy="41" r="11" stroke="#8B5CF6" stroke-width="3" stroke-dasharray="47 22"/>
      </g>
      <g transform="translate(350 116)">
        <rect width="116" height="66" rx="8" fill="#101B29"/>
        <text x="12" y="20" fill="#64748B" font-size="8">INVENTORY</text>
        <circle cx="18" cy="46" r="4" fill="#34D399"/>
        <text x="29" y="49" fill="#A7F3D0" font-size="10" font-weight="650">Stable</text>
      </g>

      <rect x="118" y="198" width="348" height="143" rx="8" fill="#0D1724"/>
      <text x="132" y="220" fill="#64748B" font-size="8">SALES ACTIVITY</text>
      <path d="M132 313H451M132 281H451M132 249H451" stroke="#223349" stroke-dasharray="3 6"/>
      <path d="M132 307C154 292 174 301 195 280C216 259 236 290 260 270C284 250 303 270 328 243C350 220 372 258 394 235C414 215 431 231 451 212" stroke="#3B82F6" stroke-width="3" stroke-linecap="round"/>
    </g>
  </g>
</svg>
