<svg width="640" height="980" viewBox="0 0 640 980" fill="none" xmlns="http://www.w3.org/2000/svg">
  <defs><linearGradient id="mp-bg" x1="0" y1="0" x2="640" y2="980" gradientUnits="userSpaceOnUse"><stop stop-color="#050816"/><stop offset="0.55" stop-color="#071126"/><stop offset="1" stop-color="#06182C"/></linearGradient></defs>
  <rect width="640" height="980" rx="22" fill="url(#mp-bg)"/><rect x="0.5" y="0.5" width="639" height="979" rx="21.5" stroke="#1E293B"/>
  <g font-family="Inter, Segoe UI, Arial, sans-serif">
    <g transform="translate(40 46)"><rect width="146" height="30" rx="15" fill="#0B2745" stroke="#1D4E7A"/><circle cx="18" cy="15" r="4" fill="#3B82F6"/><text x="32" y="19" fill="#93C5FD" font-size="10" font-weight="700" letter-spacing="1">IN DEVELOPMENT</text></g>
    <text x="40" y="150" fill="#FFFFFF" font-size="42" font-weight="740">Milk Tea Shop</text><text x="40" y="200" fill="#FFFFFF" font-size="42" font-weight="740">Management System</text>
    <text x="40" y="248" fill="#94A3B8" font-size="16">A desktop application for products, invoices,</text><text x="40" y="275" fill="#94A3B8" font-size="16">employees, inventory, and business reports.</text>
    <g transform="translate(40 310)" font-size="11" font-weight="700" text-anchor="middle"><g><rect width="66" height="30" rx="6" fill="#0F1D34"/><text x="33" y="19" fill="#93C5FD">C#</text></g><g transform="translate(76)"><rect width="100" height="30" rx="6" fill="#0F1D34"/><text x="50" y="19" fill="#93C5FD">WINFORMS</text></g><g transform="translate(186)"><rect width="114" height="30" rx="6" fill="#0F1D34"/><text x="57" y="19" fill="#93C5FD">SQL SERVER</text></g><g transform="translate(310)"><rect width="82" height="30" rx="6" fill="#0F1D34"/><text x="41" y="19" fill="#93C5FD">RDLC</text></g></g>
    <g transform="translate(40 370)"><rect width="560" height="46" rx="9" fill="#2563EB"/><text x="280" y="29" fill="#FFFFFF" font-size="12" font-weight="700" text-anchor="middle" letter-spacing="1">PRIVATE BUILD</text></g>
    <g transform="translate(40 464)"><rect width="560" height="438" rx="16" fill="#0A111E" stroke="#294460"/><rect width="560" height="48" rx="16" fill="#101B2A"/><path d="M0 48H560" stroke="#24364C"/><circle cx="22" cy="24" r="4" fill="#3B82F6"/><text x="36" y="28" fill="#A8B7C9" font-size="10" font-weight="700" letter-spacing="1">STORE DASHBOARD</text><circle cx="524" cy="24" r="4" fill="#34D399"/>
      <rect x="18" y="66" width="92" height="352" rx="9" fill="#070D16"/><rect x="31" y="82" width="66" height="34" rx="6" fill="#102B4B"/><rect x="44" y="96" width="30" height="5" rx="2.5" fill="#60A5FA"/><rect x="32" y="139" width="48" height="5" rx="2.5" fill="#26384E"/><rect x="32" y="173" width="58" height="5" rx="2.5" fill="#26384E"/><rect x="32" y="207" width="43" height="5" rx="2.5" fill="#26384E"/><rect x="32" y="241" width="54" height="5" rx="2.5" fill="#26384E"/>
      <text x="130" y="92" fill="#E2E8F0" font-size="14" font-weight="700">Today's overview</text><text x="130" y="110" fill="#64748B" font-size="9">Store performance at a glance</text>
      <g transform="translate(130 132)"><rect width="124" height="72" rx="8" fill="#101B29"/><text x="12" y="20" fill="#64748B" font-size="8">ORDERS</text><text x="12" y="51" fill="#FFFFFF" font-size="22" font-weight="700">128</text><path d="M88 51L96 42L103 46L114 31" stroke="#3B82F6" stroke-width="2"/></g>
      <g transform="translate(266 132)"><rect width="124" height="72" rx="8" fill="#101B29"/><text x="12" y="20" fill="#64748B" font-size="8">PRODUCTS</text><text x="12" y="51" fill="#FFFFFF" font-size="22" font-weight="700">42</text><circle cx="99" cy="43" r="12" stroke="#8B5CF6" stroke-width="3" stroke-dasharray="51 24"/></g>
      <g transform="translate(402 132)"><rect width="140" height="72" rx="8" fill="#101B29"/><text x="12" y="20" fill="#64748B" font-size="8">INVENTORY</text><circle cx="18" cy="50" r="4" fill="#34D399"/><text x="30" y="53" fill="#A7F3D0" font-size="10">Stable</text></g>
      <rect x="130" y="224" width="412" height="194" rx="8" fill="#0D1724"/><text x="144" y="246" fill="#64748B" font-size="8">SALES ACTIVITY</text><path d="M144 390H526M144 346H526M144 302H526" stroke="#223349" stroke-dasharray="3 6"/><path d="M144 382C173 363 196 376 221 346C245 318 273 359 301 331C330 302 353 338 383 297C410 260 437 315 463 278C488 244 507 264 526 235" stroke="#3B82F6" stroke-width="3" stroke-linecap="round"/>
    </g>
  </g>
</svg>
