<svg width="1200" height="460" viewBox="0 0 1200 460" fill="none" xmlns="http://www.w3.org/2000/svg">
  <defs>
    <linearGradient id="stack-bg" x1="0" y1="0" x2="1200" y2="460" gradientUnits="userSpaceOnUse">
      <stop stop-color="#050816"/><stop offset="1" stop-color="#071126"/>
    </linearGradient>
  </defs>
  <rect width="1200" height="460" rx="22" fill="url(#stack-bg)"/>
  <rect x="0.5" y="0.5" width="1199" height="459" rx="21.5" stroke="#1E293B"/>
  <g font-family="Inter, Segoe UI, Arial, sans-serif">
    <text x="50" y="55" fill="#FFFFFF" font-size="22" font-weight="700">Core toolkit</text>
    <text x="50" y="80" fill="#94A3B8" font-size="13">A focused stack for building practical desktop products.</text>
    <text x="1110" y="58" fill="#3B82F6" font-size="11" font-weight="700" letter-spacing="2" text-anchor="end">DEVELOP / DESIGN / SHIP</text>

    <g transform="translate(50 112)">
      <rect width="346" height="130" rx="14" fill="#091222" stroke="#1E293B"/>
      <rect x="20" y="20" width="52" height="52" rx="12" fill="#512BD4"/>
      <text x="46" y="54" fill="#FFFFFF" font-size="18" font-weight="800" text-anchor="middle">C#</text>
      <text x="90" y="43" fill="#FFFFFF" font-size="16" font-weight="700">C# / .NET</text>
      <text x="90" y="65" fill="#94A3B8" font-size="12">Language &amp; framework</text>
      <text x="20" y="105" fill="#64748B" font-size="11">Clean structure · practical logic</text>
    </g>
    <g transform="translate(427 112)">
      <rect width="346" height="130" rx="14" fill="#091222" stroke="#1E293B"/>
      <rect x="20" y="20" width="52" height="52" rx="12" fill="#2563EB"/>
      <path d="M34 34H45V45H34V34ZM48 34H59V45H48V34ZM34 48H45V59H34V48ZM48 48H59V59H48V48Z" fill="#FFFFFF"/>
      <text x="90" y="43" fill="#FFFFFF" font-size="16" font-weight="700">WinForms</text>
      <text x="90" y="65" fill="#94A3B8" font-size="12">Desktop interface</text>
      <text x="20" y="105" fill="#64748B" font-size="11">Windows UI · RDLC reports</text>
    </g>
    <g transform="translate(804 112)">
      <rect width="346" height="130" rx="14" fill="#091222" stroke="#1E293B"/>
      <rect x="20" y="20" width="52" height="52" rx="12" fill="#0F6FAD"/>
      <ellipse cx="46" cy="34" rx="13" ry="5" stroke="#FFFFFF" stroke-width="2"/>
      <path d="M33 34V57C33 60 39 63 46 63C53 63 59 60 59 57V34M33 45C33 48 39 51 46 51C53 51 59 48 59 45" stroke="#FFFFFF" stroke-width="2"/>
      <text x="90" y="43" fill="#FFFFFF" font-size="16" font-weight="700">SQL Server</text>
      <text x="90" y="65" fill="#94A3B8" font-size="12">Relational database</text>
      <text x="20" y="105" fill="#64748B" font-size="11">Queries · data modeling</text>
    </g>

    <g transform="translate(50 266)">
      <rect width="346" height="130" rx="14" fill="#091222" stroke="#1E293B"/>
      <rect x="20" y="20" width="52" height="52" rx="12" fill="#E44D26"/>
      <text x="46" y="52" fill="#FFFFFF" font-size="14" font-weight="800" text-anchor="middle">WEB</text>
      <text x="90" y="43" fill="#FFFFFF" font-size="16" font-weight="700">Web Basics</text>
      <text x="90" y="65" fill="#94A3B8" font-size="12">HTML · CSS · JavaScript</text>
      <text x="20" y="105" fill="#64748B" font-size="11">Bootstrap · responsive UI</text>
    </g>
    <g transform="translate(427 266)">
      <rect width="346" height="130" rx="14" fill="#091222" stroke="#1E293B"/>
      <rect x="20" y="20" width="52" height="52" rx="12" fill="#7C3AED"/>
      <path d="M35 33H46V46H35V33ZM48 33H59V46H48V33ZM35 48H46V61H35V48ZM48 48H59V61H48V48Z" fill="#FFFFFF" fill-opacity="0.92"/>
      <text x="90" y="43" fill="#FFFFFF" font-size="16" font-weight="700">Creative</text>
      <text x="90" y="65" fill="#94A3B8" font-size="12">Figma · Photoshop</text>
      <text x="20" y="105" fill="#64748B" font-size="11">Premiere Pro · visual craft</text>
    </g>
    <g transform="translate(804 266)">
      <rect width="346" height="130" rx="14" fill="#091222" stroke="#1E293B"/>
      <rect x="20" y="20" width="52" height="52" rx="12" fill="#172554"/>
      <path d="M33 55L44 35L59 46L44 61L33 55Z" stroke="#60A5FA" stroke-width="2.5" stroke-linejoin="round"/>
      <text x="90" y="43" fill="#FFFFFF" font-size="16" font-weight="700">Tooling</text>
      <text x="90" y="65" fill="#94A3B8" font-size="12">Visual Studio · VS Code</text>
      <text x="20" y="105" fill="#64748B" font-size="11">Git · GitHub</text>
    </g>
  </g>
</svg>
