<svg width="640" height="900" viewBox="0 0 640 900" fill="none" xmlns="http://www.w3.org/2000/svg">
  <defs><linearGradient id="ms-bg" x1="0" y1="0" x2="640" y2="900" gradientUnits="userSpaceOnUse"><stop stop-color="#050816"/><stop offset="1" stop-color="#071126"/></linearGradient></defs>
  <rect width="640" height="900" rx="22" fill="url(#ms-bg)"/><rect x="0.5" y="0.5" width="639" height="899" rx="21.5" stroke="#1E293B"/>
  <g font-family="Inter, Segoe UI, Arial, sans-serif">
    <text x="40" y="54" fill="#FFFFFF" font-size="23" font-weight="700">Core toolkit</text><text x="40" y="80" fill="#94A3B8" font-size="13">Focused tools for practical desktop products.</text>
    <g transform="translate(40 110)"><rect width="560" height="108" rx="14" fill="#091222" stroke="#1E293B"/><rect x="18" y="18" width="52" height="52" rx="12" fill="#512BD4"/><text x="44" y="52" fill="#FFFFFF" font-size="18" font-weight="800" text-anchor="middle">C#</text><text x="90" y="41" fill="#FFFFFF" font-size="17" font-weight="700">C# / .NET</text><text x="90" y="65" fill="#94A3B8" font-size="12">Language · framework · clean logic</text></g>
    <g transform="translate(40 236)"><rect width="560" height="108" rx="14" fill="#091222" stroke="#1E293B"/><rect x="18" y="18" width="52" height="52" rx="12" fill="#2563EB"/><path d="M32 32H43V43H32V32ZM46 32H57V43H46V32ZM32 46H43V57H32V46ZM46 46H57V57H46V46Z" fill="#FFFFFF"/><text x="90" y="41" fill="#FFFFFF" font-size="17" font-weight="700">WinForms</text><text x="90" y="65" fill="#94A3B8" font-size="12">Desktop interface · RDLC reports</text></g>
    <g transform="translate(40 362)"><rect width="560" height="108" rx="14" fill="#091222" stroke="#1E293B"/><rect x="18" y="18" width="52" height="52" rx="12" fill="#0F6FAD"/><ellipse cx="44" cy="32" rx="13" ry="5" stroke="#FFFFFF" stroke-width="2"/><path d="M31 32V55C31 58 37 61 44 61C51 61 57 58 57 55V32M31 43C31 46 37 49 44 49C51 49 57 46 57 43" stroke="#FFFFFF" stroke-width="2"/><text x="90" y="41" fill="#FFFFFF" font-size="17" font-weight="700">SQL Server</text><text x="90" y="65" fill="#94A3B8" font-size="12">Queries · relational data modeling</text></g>
    <g transform="translate(40 488)"><rect width="560" height="108" rx="14" fill="#091222" stroke="#1E293B"/><rect x="18" y="18" width="52" height="52" rx="12" fill="#E44D26"/><text x="44" y="50" fill="#FFFFFF" font-size="13" font-weight="800" text-anchor="middle">WEB</text><text x="90" y="41" fill="#FFFFFF" font-size="17" font-weight="700">Web Basics</text><text x="90" y="65" fill="#94A3B8" font-size="12">HTML · CSS · JavaScript · Bootstrap</text></g>
    <g transform="translate(40 614)"><rect width="560" height="108" rx="14" fill="#091222" stroke="#1E293B"/><rect x="18" y="18" width="52" height="52" rx="12" fill="#7C3AED"/><path d="M31 31H42V44H31V31ZM45 31H56V44H45V31ZM31 47H42V60H31V47ZM45 47H56V60H45V47Z" fill="#FFFFFF"/><text x="90" y="41" fill="#FFFFFF" font-size="17" font-weight="700">Creative</text><text x="90" y="65" fill="#94A3B8" font-size="12">Figma · Photoshop · Premiere Pro</text></g>
    <g transform="translate(40 740)"><rect width="560" height="108" rx="14" fill="#091222" stroke="#1E293B"/><rect x="18" y="18" width="52" height="52" rx="12" fill="#172554"/><path d="M31 53L42 33L57 44L42 59L31 53Z" stroke="#60A5FA" stroke-width="2.5" stroke-linejoin="round"/><text x="90" y="41" fill="#FFFFFF" font-size="17" font-weight="700">Tooling</text><text x="90" y="65" fill="#94A3B8" font-size="12">Visual Studio · VS Code · Git · GitHub</text></g>
  </g>
</svg>
